<svg xmlns="http://www.w3.org/2000/svg" viewBox="0 0 48.84 52.44"><defs><style>.cls-1,.cls-2{fill:#fbfaff;}.cls-2{opacity:0.2;}</style></defs><g id="Layer_2" data-name="Layer 2"><g id="Layer_1-2" data-name="Layer 1"><path class="cls-1" d="M27,52.44c0-.2,0-.41,0-.62,0-2.13-.86-3-3-3A24.12,24.12,0,0,1,5.93,40.28,23.13,23.13,0,0,1,.26,28,23.94,23.94,0,0,1,6.51,7.79,23.76,23.76,0,0,1,19.45.46c.66-.14,1.33-.24,2-.33L22.33,0h4.15l.92.14c.86.12,1.67.24,2.47.42A24.17,24.17,0,0,1,40.58,6.09a24.39,24.39,0,0,1,6,28.42c-.34.76-.77.86-1.16.86a1.15,1.15,0,0,1-1.16-.81,1.36,1.36,0,0,1,.13-1.19,19.22,19.22,0,0,0,1.39-4.14,21.59,21.59,0,0,0-4.49-18.81A20.94,20.94,0,0,0,28.48,2.81a24.47,24.47,0,0,0-4.3-.39,21.27,21.27,0,0,0-13.73,5A21,21,0,0,0,2.87,20.24,21.4,21.4,0,0,0,7.48,38.33a21.38,21.38,0,0,0,12.77,7.6,25.5,25.5,0,0,0,3.73.38l.38,0A2.5,2.5,0,0,0,27,43.62v-1l7.75,4.9Z"/><circle class="cls-2" cx="24.42" cy="23.85" r="18.41"/><path class="cls-1" d="M24.24,38.47c-.61,0-.74-.1-.75-.11s-.1-.13-.1-.75V36.52c0-1.3-.34-1.72-1.6-2a19.08,19.08,0,0,1-3.26-.84,4.35,4.35,0,0,1-.59-.25.43.43,0,0,1-.17-.12.48.48,0,0,1,0-.16c.14-.43.3-.84.47-1.25s.21-.3.23-.3a.79.79,0,0,1,.31.08,13.79,13.79,0,0,0,4.56,1.22h.36a4.86,4.86,0,0,0,3.55-1.29,3.58,3.58,0,0,0,.27-4.95,7,7,0,0,0-2.73-1.88c-.37-.17-.73-.32-1.1-.47a20.12,20.12,0,0,1-2.95-1.42,5.29,5.29,0,0,1-2.63-3.25,5.35,5.35,0,0,1,3.61-6.3l.5-.16c1.18-.36,1.38-.82,1.38-2v-.49c0-.13,0-.27,0-.4a3.23,3.23,0,0,1,0-.73.93.93,0,0,1,.06-.22,1.08,1.08,0,0,1,.76-.2A2.46,2.46,0,0,1,25,9.3c.23,0,.32.08.34.45a11.68,11.68,0,0,1,0,1.45,1.61,1.61,0,0,0,1.49,1.85,14.51,14.51,0,0,1,3,.78.8.8,0,0,1,.25.12,1.64,1.64,0,0,1-.07.2c-.16.44-.3.82-.47,1.19a.55.55,0,0,1-.17.25h0a.73.73,0,0,1-.26-.06,10.66,10.66,0,0,0-4.26-.92l-.65,0a3.73,3.73,0,0,0-3.51,2.6,3,3,0,0,0,.75,3,6.92,6.92,0,0,0,2.21,1.47c.48.23,1,.44,1.46.65a23.07,23.07,0,0,1,2.69,1.29,6,6,0,0,1,3.1,3.87,5.7,5.7,0,0,1-3,6.34,8.29,8.29,0,0,1-1.64.62,1.51,1.51,0,0,0-1.18,1.59c0,.35,0,.69,0,1v.45a1.77,1.77,0,0,1-.11.81s-.14.11-.79.11Z"/></g></g></svg>