<svg xmlns="http://www.w3.org/2000/svg" viewBox="0 0 55.73 55.73"><defs><style>.cls-1{fill:#ebf4fc;}.cls-2{fill:#0064a1;}</style></defs><g id="Layer_2" data-name="Layer 2"><g id="Layer_1-2" data-name="Layer 1"><circle class="cls-1" cx="27.86" cy="27.86" r="27.86"/><path class="cls-2" d="M27.16,45.85a4.42,4.42,0,0,1-2.59-1.55l-.15-.2c-.06-.1-.18-.19-.13-.3s.21-.08.31-.08h6.53c.1,0,.25-.06.31.08s-.07.21-.13.3a4.42,4.42,0,0,1-2.74,1.75Z"/><path class="cls-2" d="M27.84,41.67H15.46c-.92,0-1.3-.39-1.3-1.3a13.1,13.1,0,0,1,.32-3,9.49,9.49,0,0,1,2.17-4,7.51,7.51,0,0,0,1.67-4.59c.08-1.7.06-3.41,0-5.12a9.47,9.47,0,0,1,6-8.86l.19-.08c.53-.2.44-.12.29-.59a3.06,3.06,0,0,1,.76-3.33A3.19,3.19,0,0,1,31.05,13a2.58,2.58,0,0,1-.23,1.26c-.13.27-.05.35.2.44a9.43,9.43,0,0,1,5.5,5,8.76,8.76,0,0,1,.84,3.73c0,1.43,0,2.86,0,4.28a14.6,14.6,0,0,0,.19,2.38A6.81,6.81,0,0,0,39,33.31a10.18,10.18,0,0,1,2.06,3.47,12.13,12.13,0,0,1,.49,3.88,1,1,0,0,1-1.1,1H27.84Zm0-27.57a1,1,0,1,0-1-1A1.07,1.07,0,0,0,27.88,14.1Z"/><path class="cls-2" d="M14.16,23.1a13.74,13.74,0,0,1,3.42-8.56,14.07,14.07,0,0,1,3.24-2.71,1.23,1.23,0,0,1,1-.21,1,1,0,0,1,.79.85,1.06,1.06,0,0,1-.54,1.16,11.73,11.73,0,0,0-1.63,1.16,11.4,11.4,0,0,0-4.07,8.06l-.06.84a1.08,1.08,0,0,1-2.15,0C14.15,23.49,14.16,23.29,14.16,23.1Z"/><path class="cls-2" d="M41.57,23.14v.46a1.08,1.08,0,1,1-2.15,0,12,12,0,0,0-1.26-5.2,11.52,11.52,0,0,0-4.36-4.69,1.23,1.23,0,0,1-.69-.88,1.08,1.08,0,0,1,1.65-1.09A13.32,13.32,0,0,1,38.56,15,13.62,13.62,0,0,1,41.57,23.14Z"/></g></g></svg>