<svg xmlns="http://www.w3.org/2000/svg" viewBox="0 0 43.07 60.38"><defs><style>.cls-1,.cls-2{fill:#fbfaff;}.cls-1{opacity:0.2;}.cls-3{fill:none;}</style></defs><g id="Layer_2" data-name="Layer 2"><g id="Layer_1-2" data-name="Layer 1"><circle class="cls-1" cx="18.41" cy="35.97" r="18.41"/><path class="cls-2" d="M18.23,50.58c-.61,0-.74-.09-.75-.1s-.1-.13-.1-.75V48.64c0-1.3-.34-1.72-1.6-2a20.06,20.06,0,0,1-3.26-.84,4.35,4.35,0,0,1-.59-.25.43.43,0,0,1-.17-.12.56.56,0,0,1,0-.17c.14-.42.3-.84.47-1.25s.21-.29.23-.29a.79.79,0,0,1,.31.08,13.79,13.79,0,0,0,4.57,1.22h.35a4.85,4.85,0,0,0,3.55-1.29,3.6,3.6,0,0,0,.27-5,7.26,7.26,0,0,0-2.73-1.88l-1.1-.46a20.15,20.15,0,0,1-2.95-1.43,5.24,5.24,0,0,1-2.63-3.24,5.36,5.36,0,0,1,3.61-6.31l.51-.16c1.17-.35,1.37-.81,1.37-1.94v-.49c0-.14,0-.27,0-.4a3.23,3.23,0,0,1,0-.73.93.93,0,0,1,.06-.22,1.08,1.08,0,0,1,.76-.2,3.27,3.27,0,0,1,.53.05c.23.05.33.09.34.45a11.67,11.67,0,0,1,0,1.45,1.61,1.61,0,0,0,1.49,1.85,15.89,15.89,0,0,1,3,.78,1.14,1.14,0,0,1,.25.12,1.18,1.18,0,0,1-.07.21c-.16.44-.3.82-.47,1.19a.55.55,0,0,1-.17.25h0a.62.62,0,0,1-.26-.07,10.82,10.82,0,0,0-4.26-.91l-.64,0a3.72,3.72,0,0,0-3.52,2.6,3.05,3.05,0,0,0,.75,3,6.92,6.92,0,0,0,2.21,1.47c.48.23,1,.44,1.46.65a21.56,21.56,0,0,1,2.69,1.29,6,6,0,0,1,3.1,3.87A5.68,5.68,0,0,1,22,46a8.35,8.35,0,0,1-1.64.63,1.51,1.51,0,0,0-1.18,1.58c0,.35,0,.7,0,1v.44a1.81,1.81,0,0,1-.11.82,1.72,1.72,0,0,1-.79.1Z"/><line class="cls-3" x1="19.76" y1="60.38" x2="19.76" y2="57.88"/><path class="cls-2" d="M42.2,29.61A23.11,23.11,0,0,0,35.14,18,24,24,0,0,0,21.3,11.74v-4h3.37L19.76,0,14.85,7.75h3.56v6.43h2.72a21.29,21.29,0,0,1,12.69,6,21.4,21.4,0,0,1,6.69,17.43,21,21,0,0,1-6,13.59A21.23,21.23,0,0,1,21.4,57.75c-.54.07-1.09.11-1.64.13v2.5l3.76-.44.86-.23c.66-.17,1.31-.35,1.95-.56a23.77,23.77,0,0,0,12-8.79A23.91,23.91,0,0,0,42.2,29.61Z"/></g></g></svg>